<svg width="19" height="16" viewBox="0 0 19 16" fill="none" xmlns="http://www.w3.org/2000/svg">
<path d="M5.26614 1.15848L4.89881 2.26045H2.26045C1.01367 2.26045 0 3.27412 0 4.52089V13.5627C0 14.8095 1.01367 15.8231 2.26045 15.8231H15.8231C17.0699 15.8231 18.0836 14.8095 18.0836 13.5627V4.52089C18.0836 3.27412 17.0699 2.26045 15.8231 2.26045H13.1848L12.8174 1.15848C12.5879 0.466217 11.9415 0 11.2104 0H6.87317C6.14206 0 5.49571 0.466217 5.26614 1.15848ZM9.04179 5.65112C10.9137 5.65112 12.4325 7.16986 12.4325 9.04179C12.4325 10.9137 10.9137 12.4325 9.04179 12.4325C7.16986 12.4325 5.65112 10.9137 5.65112 9.04179C5.65112 7.16986 7.16986 5.65112 9.04179 5.65112Z" fill="black"/>
</svg>
