<svg width="14" height="20" viewBox="0 0 14 20" fill="none" xmlns="http://www.w3.org/2000/svg">
<path d="M0.00364483 7.32427C0.00364483 3.27767 3.13825 0 7.00182 0C10.8654 0 14 3.27767 14 7.32427C14 11.9573 9.61885 17.5107 7.78912 19.6272C7.35902 20.1243 6.64098 20.1243 6.21088 19.6272C4.38115 17.5107 0 11.9573 0 7.32427H0.00364483ZM7.00182 9.94175C8.28847 9.94175 9.33455 8.82718 9.33455 7.45631C9.33455 6.08544 8.28847 4.97087 7.00182 4.97087C5.71518 4.97087 4.6691 6.08544 4.6691 7.45631C4.6691 8.82718 5.71518 9.94175 7.00182 9.94175Z" fill="white"/>
</svg>
