<svg preserveAspectRatio="none" width="100%" height="100%" overflow="visible" style="display: block;" viewBox="0 0 39 39" fill="none" xmlns="http://www.w3.org/2000/svg">
<g id="Frame">
<path id="Vector" d="M15.9778 2.925C15.1673 2.925 14.4361 3.43078 14.1497 4.1925L13.1625 6.825H7.3125C6.50203 6.825 5.85 7.47703 5.85 8.2875C5.85 9.09797 6.50203 9.75 7.3125 9.75H31.6875C32.498 9.75 33.15 9.09797 33.15 8.2875C33.15 7.47703 32.498 6.825 31.6875 6.825H25.8375L24.8503 4.1925C24.5639 3.43078 23.8388 2.925 23.0222 2.925H15.9778ZM7.8 12.675V31.2C7.8 33.3511 9.54891 35.1 11.7 35.1H27.3C29.4511 35.1 31.2 33.3511 31.2 31.2V12.675H28.275V31.2C28.275 31.7363 27.8363 32.175 27.3 32.175H11.7C11.1638 32.175 10.725 31.7363 10.725 31.2V12.675H7.8ZM17.55 17.0625C17.55 16.252 16.898 15.6 16.0875 15.6C15.277 15.6 14.625 16.252 14.625 17.0625V27.7875C14.625 28.598 15.277 29.25 16.0875 29.25C16.898 29.25 17.55 28.598 17.55 27.7875V17.0625ZM24.375 17.0625C24.375 16.252 23.723 15.6 22.9125 15.6C22.102 15.6 21.45 16.252 21.45 17.0625V27.7875C21.45 28.598 22.102 29.25 22.9125 29.25C23.723 29.25 24.375 28.598 24.375 27.7875V17.0625Z" fill="var(--fill-0, #5F6368)"/>
</g>
</svg>
