<svg width="37" height="35" viewBox="0 0 37 35" fill="none" xmlns="http://www.w3.org/2000/svg">
<path d="M35.9025 31.7964C33.6084 27.7701 30.0262 24.6329 25.7326 22.8898C27.8678 21.2884 29.445 19.0558 30.2408 16.5082C31.0366 13.9606 31.0107 11.2272 30.1666 8.69523C29.3226 6.16321 27.7034 3.96093 25.5382 2.40035C23.373 0.839768 20.7716 0 18.1027 0C15.4337 0 12.8324 0.839768 10.6672 2.40035C8.50198 3.96093 6.88269 6.16321 6.03868 8.69523C5.19468 11.2272 5.16874 13.9606 5.96454 16.5082C6.76035 19.0558 8.33755 21.2884 10.4727 22.8898C6.17909 24.6329 2.59691 27.7701 0.302837 31.7964C0.160688 32.025 0.0659465 32.2798 0.0242446 32.5457C-0.0174574 32.8116 -0.0052685 33.0832 0.0600869 33.3443C0.125442 33.6054 0.24263 33.8507 0.404683 34.0656C0.566736 34.2806 0.770346 34.4607 1.00341 34.5954C1.23647 34.73 1.49423 34.8164 1.76136 34.8495C2.02849 34.8825 2.29953 34.8615 2.55838 34.7877C2.81723 34.7139 3.05861 34.5888 3.26815 34.4199C3.47769 34.2509 3.65112 34.0416 3.77814 33.8043C6.81003 28.5637 12.1644 25.4381 18.1027 25.4381C24.041 25.4381 29.3953 28.5654 32.4272 33.8043C32.7025 34.2469 33.1391 34.5651 33.6447 34.6917C34.1503 34.8183 34.6854 34.7432 35.1367 34.4825C35.588 34.2217 35.9203 33.7957 36.0632 33.2944C36.2061 32.7932 36.1485 32.256 35.9025 31.7964ZM9.40187 12.7216C9.40187 11.0007 9.91216 9.31851 10.8682 7.88767C11.8243 6.45683 13.1832 5.34163 14.773 4.68308C16.3629 4.02454 18.1123 3.85224 19.8001 4.18796C21.4879 4.52368 23.0382 5.35235 24.2551 6.56918C25.4719 7.78601 26.3006 9.33634 26.6363 11.0241C26.972 12.7119 26.7997 14.4614 26.1412 16.0512C25.4826 17.6411 24.3674 19 22.9366 19.956C21.5057 20.9121 19.8235 21.4224 18.1027 21.4224C15.7959 21.4197 13.5843 20.5022 11.9532 18.871C10.3221 17.2399 9.40452 15.0284 9.40187 12.7216Z" fill="black"/>
</svg>
