<svg width="27" height="24" viewBox="0 0 27 24" fill="none" xmlns="http://www.w3.org/2000/svg">
<path d="M6.04249 0C3.82691 0 2.01416 1.78688 2.01416 3.97083V8.93438H0V11.9125H2.01416V22.8323C2.01416 23.3783 2.46735 23.825 3.02125 23.825H6.04249L6.38893 22.8323H19.7952L20.1416 23.825H23.1629C23.7168 23.825 24.17 23.3783 24.17 22.8323V11.9125H26.1841V8.93438H24.17V3.97083C24.17 1.78688 22.3572 0 20.1416 0H6.04249ZM6.04249 1.98542H20.1416C21.2666 1.98542 22.1558 2.86198 22.1558 3.97083H4.02833C4.02833 2.86198 4.91758 1.98542 6.04249 1.98542ZM4.02833 5.95625H12.085V12.9052H4.02833V5.95625ZM14.0991 5.95625H22.1558V12.9052H14.0991V5.95625ZM4.02833 14.8906H22.1558V20.8469H4.02833V14.8906ZM5.03541 16.876V18.8615H9.06374V16.876H5.03541ZM17.1204 16.876V18.8615H21.1487V16.876H17.1204Z" fill="black"/>
</svg>
