<svg preserveAspectRatio="none" width="100%" height="100%" overflow="visible" style="display: block;" viewBox="0 0 50 50" fill="none" xmlns="http://www.w3.org/2000/svg">
<g id="ph:bus-light">
<path id="Vector" d="M35.9375 6.64062H14.0625C12.5085 6.64062 11.0181 7.25795 9.9193 8.3568C8.82045 9.45564 8.20313 10.946 8.20312 12.5V40.625C8.20313 41.3502 8.49121 42.0457 9.00401 42.5585C9.5168 43.0713 10.2123 43.3594 10.9375 43.3594H15.625C16.3502 43.3594 17.0457 43.0713 17.5585 42.5585C18.0713 42.0457 18.3594 41.3502 18.3594 40.625V37.1094H31.6406V40.625C31.6406 41.3502 31.9287 42.0457 32.4415 42.5585C32.9543 43.0713 33.6498 43.3594 34.375 43.3594H39.0625C39.7877 43.3594 40.4832 43.0713 40.996 42.5585C41.5088 42.0457 41.7969 41.3502 41.7969 40.625V12.5C41.7969 10.946 41.1796 9.45564 40.0807 8.3568C38.9819 7.25795 37.4915 6.64062 35.9375 6.64062ZM10.5469 34.7656V23.0469H39.4531V34.7656H10.5469ZM10.5469 15.2344H39.4531V20.7031H10.5469V15.2344ZM14.0625 8.98438H35.9375C36.8699 8.98438 37.7641 9.35477 38.4234 10.0141C39.0827 10.6734 39.4531 11.5676 39.4531 12.5V12.8906H10.5469V12.5C10.5469 11.5676 10.9173 10.6734 11.5766 10.0141C12.2359 9.35477 13.1301 8.98438 14.0625 8.98438ZM16.0156 40.625C16.0156 40.7286 15.9745 40.828 15.9012 40.9012C15.828 40.9745 15.7286 41.0156 15.625 41.0156H10.9375C10.8339 41.0156 10.7345 40.9745 10.6613 40.9012C10.588 40.828 10.5469 40.7286 10.5469 40.625V37.1094H16.0156V40.625ZM39.0625 41.0156H34.375C34.2714 41.0156 34.172 40.9745 34.0988 40.9012C34.0255 40.828 33.9844 40.7286 33.9844 40.625V37.1094H39.4531V40.625C39.4531 40.7286 39.412 40.828 39.3387 40.9012C39.2655 40.9745 39.1661 41.0156 39.0625 41.0156ZM19.9219 28.9062C19.9219 29.2925 19.8073 29.6702 19.5927 29.9913C19.3781 30.3125 19.0731 30.5629 18.7162 30.7107C18.3593 30.8585 17.9666 30.8972 17.5877 30.8218C17.2088 30.7465 16.8608 30.5605 16.5877 30.2873C16.3145 30.0142 16.1285 29.6662 16.0532 29.2873C15.9778 28.9084 16.0165 28.5157 16.1643 28.1588C16.3121 27.8019 16.5625 27.4969 16.8837 27.2823C17.2048 27.0677 17.5825 26.9531 17.9688 26.9531C18.4868 26.9531 18.9835 27.1589 19.3498 27.5252C19.7161 27.8915 19.9219 28.3882 19.9219 28.9062ZM33.9844 28.9062C33.9844 29.2925 33.8698 29.6702 33.6552 29.9913C33.4406 30.3125 33.1356 30.5629 32.7787 30.7107C32.4218 30.8585 32.0291 30.8972 31.6502 30.8218C31.2713 30.7465 30.9233 30.5605 30.6502 30.2873C30.377 30.0142 30.191 29.6662 30.1157 29.2873C30.0403 28.9084 30.079 28.5157 30.2268 28.1588C30.3746 27.8019 30.625 27.4969 30.9462 27.2823C31.2673 27.0677 31.645 26.9531 32.0312 26.9531C32.5493 26.9531 33.046 27.1589 33.4123 27.5252C33.7786 27.8915 33.9844 28.3882 33.9844 28.9062ZM48.0469 15.625V20.3125C48.0469 20.6233 47.9234 20.9214 47.7036 21.1411C47.4839 21.3609 47.1858 21.4844 46.875 21.4844C46.5642 21.4844 46.2661 21.3609 46.0464 21.1411C45.8266 20.9214 45.7031 20.6233 45.7031 20.3125V15.625C45.7031 15.3142 45.8266 15.0161 46.0464 14.7964C46.2661 14.5766 46.5642 14.4531 46.875 14.4531C47.1858 14.4531 47.4839 14.5766 47.7036 14.7964C47.9234 15.0161 48.0469 15.3142 48.0469 15.625ZM4.29688 15.625V20.3125C4.29688 20.6233 4.17341 20.9214 3.95364 21.1411C3.73387 21.3609 3.4358 21.4844 3.125 21.4844C2.8142 21.4844 2.51613 21.3609 2.29636 21.1411C2.07659 20.9214 1.95312 20.6233 1.95312 20.3125V15.625C1.95312 15.3142 2.07659 15.0161 2.29636 14.7964C2.51613 14.5766 2.8142 14.4531 3.125 14.4531C3.4358 14.4531 3.73387 14.5766 3.95364 14.7964C4.17341 15.0161 4.29687 15.3142 4.29688 15.625Z" fill="var(--fill-0, black)"/>
</g>
</svg>
